# xmcd
#
# Track frame offsets: 
#        150
#        21040
#        46022
#        65882
#        88330
#        106052
#        124422
#        137475
#        152687
#        172422
#        193557
#        216185
#        231357
#
# Disc length: 3203 seconds
#
# Revision: 3
# Processed by: cddbd v1.5.2PL0 Copyright (c) Steve Scherf et al.
# Submitted via: ExactAudioCopy v0.99pb5
#
DISCID=bb0c810d
DTITLE=Aaron Neville - The Grand Tour
DYEAR=1993
DGENRE=R&B
TTITLE0=Don't Take Away My Heaven
TTITLE1=I Owe You One
TTITLE2=Don't Fall Apart On Me Tonight
TTITLE3=My Brother, My Brother
TTITLE4=Betcha By Golly, Wow
TTITLE5=Song of Bernadette
TTITLE6=You Never Can Tell
TTITLE7=The Bells
TTITLE8=These Foolish Things
TTITLE9=The Roadie Song
TTITLE10=Ain't No Way
TTITLE11=The Grand Tour
TTITLE12=The Lord's Prayer
EXTD=Aaron Neville Don't take Away My Heaven LaRita Person
EXTT0=
EXTT1=
EXTT2=
EXTT3=
EXTT4=
EXTT5=
EXTT6=
EXTT7=
EXTT8=
EXTT9=
EXTT10=
EXTT11=
EXTT12=
PLAYORDER=
